<?xml version="1.0" encoding="UTF-8"?>
<svg width="12px" height="13px" viewBox="0 0 12 13" version="1.1" xmlns="http://www.w3.org/2000/svg" xmlns:xlink="http://www.w3.org/1999/xlink">
    <!-- Generator: Sketch 48.2 (47327) - http://www.bohemiancoding.com/sketch -->
    <title>symbol-male - simple-line-icons</title>
    <desc>Created with Sketch.</desc>
    <defs></defs>
    <g id="Mobile-Copy-3" stroke="none" stroke-width="1" fill="none" fill-rule="evenodd" transform="translate(-264.000000, -198.000000)">
        <g id="Dynamic-group" transform="translate(17.000000, 175.000000)" fill="#A7A7A7">
            <g id="20:20" transform="translate(20.000000, 20.000000)">
                <g id="Group" transform="translate(227.000000, 2.000000)">
                    <path d="M11.9882812,2.01953125 L11.9765625,2.1484375 C11.9765625,2.15625004 11.9785156,2.16015625 11.9824219,2.16015625 L11.9882812,2.16015625 L11.9765625,5.6171875 C11.9765625,5.69531289 11.949219,5.75585916 11.8945312,5.79882812 C11.8398435,5.84179709 11.7734379,5.86328125 11.6953125,5.86328125 L11.5078125,5.86328125 C11.4296871,5.86328125 11.3652346,5.83593777 11.3144531,5.78125 C11.2636716,5.72656223 11.2382812,5.66015664 11.2382812,5.58203125 L11.25,3.015625 L8.23828125,6.00390625 C8.59765805,6.41797082 8.87890523,6.88671613 9.08203125,7.41015625 C9.28515727,7.93359637 9.38671875,8.48827832 9.38671875,9.07421875 C9.38671875,9.72265949 9.26367311,10.3300753 9.01757812,10.8964844 C8.77148314,11.4628935 8.435549,11.9589822 8.00976562,12.3847656 C7.58398225,12.810549 7.08789346,13.1464831 6.52148438,13.3925781 C5.95507529,13.6386731 5.34765949,13.7617188 4.69921875,13.7617188 C4.05077801,13.7617188 3.4414091,13.6386731 2.87109375,13.3925781 C2.3007784,13.1464831 1.80468961,12.810549 1.3828125,12.3847656 C0.960935391,11.9589822 0.626954355,11.4628935 0.380859375,10.8964844 C0.134764395,10.3300753 0.01171875,9.72265949 0.01171875,9.07421875 C0.01171875,8.42577801 0.134764395,7.8164091 0.380859375,7.24609375 C0.626954355,6.6757784 0.960935391,6.17968961 1.3828125,5.7578125 C1.80468961,5.33593539 2.3007784,5.00195436 2.87109375,4.75585938 C3.4414091,4.50976439 4.05077801,4.38671875 4.69921875,4.38671875 C5.2695341,4.38671875 5.81054432,4.48437402 6.32226562,4.6796875 C6.83398693,4.87500098 7.29296672,5.14062332 7.69921875,5.4765625 L10.7109375,2.5 L8.1796875,2.48828125 C8.10937465,2.48828125 8.04296906,2.46484398 7.98046875,2.41796875 C7.91796844,2.37109352 7.88281254,2.30078172 7.875,2.20703125 L7.875,2.01953125 C7.875,1.94140586 7.90234348,1.87500027 7.95703125,1.8203125 C8.01171902,1.76562473 8.0742184,1.73828125 8.14453125,1.73828125 L11.5898438,1.75 L11.7304688,1.75 C11.7695314,1.75 11.8066404,1.75585932 11.8417969,1.76757812 C11.8769533,1.77929693 11.9062499,1.79687488 11.9296875,1.8203125 C11.9531251,1.84375012 11.96875,1.8730467 11.9765625,1.90820312 C11.984375,1.94335955 11.9882812,1.98046855 11.9882812,2.01953125 Z M8.63671875,9.07421875 C8.63671875,8.52734102 8.53320416,8.01562738 8.32617188,7.5390625 C8.11913959,7.06249762 7.8378924,6.64453305 7.48242188,6.28515625 C7.12695135,5.92577945 6.70898678,5.64257916 6.22851562,5.43554688 C5.74804447,5.22851459 5.23828395,5.125 4.69921875,5.125 C4.15234102,5.125 3.63867428,5.22851459 3.15820313,5.43554688 C2.67773197,5.64257916 2.2597674,5.92577945 1.90429688,6.28515625 C1.54882635,6.64453305 1.26757916,7.06249762 1.06054688,7.5390625 C0.85351459,8.01562738 0.75,8.52734102 0.75,9.07421875 C0.75,9.62109648 0.85351459,10.1328101 1.06054688,10.609375 C1.26757916,11.0859399 1.54882635,11.5039045 1.90429688,11.8632812 C2.2597674,12.222658 2.67773197,12.5039052 3.15820313,12.7070312 C3.63867428,12.9101573 4.15234102,13.0117188 4.69921875,13.0117188 C5.23828395,13.0117188 5.74804447,12.9101573 6.22851562,12.7070312 C6.70898678,12.5039052 7.12695135,12.222658 7.48242188,11.8632812 C7.8378924,11.5039045 8.11913959,11.0859399 8.32617188,10.609375 C8.53320416,10.1328101 8.63671875,9.62109648 8.63671875,9.07421875 Z" id="symbol-male---simple-line-icons"></path>
                </g>
            </g>
        </g>
    </g>
</svg>