<?xml version="1.0" encoding="UTF-8"?>
<svg width="12px" height="13px" viewBox="0 0 12 13" version="1.1" xmlns="http://www.w3.org/2000/svg" xmlns:xlink="http://www.w3.org/1999/xlink">
    <!-- Generator: Sketch 48.2 (47327) - http://www.bohemiancoding.com/sketch -->
    <title>Symbol-female - simple-line-icons</title>
    <desc>Created with Sketch.</desc>
    <defs></defs>
    <g id="Mobile-Copy-3" stroke="none" stroke-width="1" fill="none" fill-rule="evenodd" transform="translate(-248.000000, -462.000000)">
        <g id="Dynamic-group-Copy" transform="translate(17.000000, 439.000000)" fill="#A7A7A7">
            <g id="20:20" transform="translate(20.000000, 20.000000)">
                <g id="Group" transform="translate(211.000000, 2.000000)">
                    <path d="M7.3125,1.75 C7.96094074,1.75 8.56835654,1.87304564 9.13476562,2.11914062 C9.70117471,2.36523561 10.1972635,2.69921664 10.6230469,3.12109375 C11.0488303,3.54297086 11.3847644,4.03905965 11.6308594,4.609375 C11.8769544,5.17969035 12,5.78905926 12,6.4375 C12,7.08594074 11.8769544,7.69335654 11.6308594,8.25976562 C11.3847644,8.82617471 11.0488303,9.3222635 10.6230469,9.74804688 C10.1972635,10.1738303 9.70117471,10.5097644 9.13476562,10.7558594 C8.56835654,11.0019544 7.96094074,11.125 7.3125,11.125 C6.72655957,11.125 6.17383072,11.0234385 5.65429688,10.8203125 C5.13476303,10.6171865 4.67187703,10.3398455 4.265625,9.98828125 L2.765625,11.5 L4.37109375,13.1171875 C4.4414066,13.1875004 4.4765625,13.273437 4.4765625,13.375 C4.4765625,13.476563 4.4414066,13.5664059 4.37109375,13.6445312 C4.29296836,13.7148441 4.20312551,13.75 4.1015625,13.75 C3.99999949,13.75 3.91406285,13.7148441 3.84375,13.6445312 L2.23828125,12.0273438 L0.64453125,13.6328125 C0.574218398,13.7031254 0.486328652,13.7382812 0.380859375,13.7382812 C0.275390098,13.7382812 0.187500352,13.7031254 0.1171875,13.6328125 C0.0390621094,13.5624996 0,13.4746099 0,13.3691406 C0,13.2636713 0.0390621094,13.1757816 0.1171875,13.1054688 L1.7109375,11.5 L0.12890625,9.89453125 C0.0507808594,9.8242184 0.01171875,9.73632865 0.01171875,9.63085938 C0.01171875,9.5253901 0.0507808594,9.43750035 0.12890625,9.3671875 C0.199219102,9.28906211 0.285155742,9.25 0.38671875,9.25 C0.488281758,9.25 0.578124609,9.28906211 0.65625,9.3671875 L2.23828125,10.9609375 L3.7265625,9.4609375 C3.38281078,9.05468547 3.11328223,8.59375258 2.91796875,8.078125 C2.72265527,7.56249742 2.625,7.01562789 2.625,6.4375 C2.625,5.78905926 2.74804564,5.17969035 2.99414062,4.609375 C3.24023561,4.03905965 3.57421664,3.54297086 3.99609375,3.12109375 C4.41797086,2.69921664 4.91405965,2.36523561 5.484375,2.11914062 C6.05469035,1.87304564 6.66405926,1.75 7.3125,1.75 Z M7.3125,10.375 C7.8515652,10.375 8.36132572,10.2714854 8.84179688,10.0644531 C9.32226803,9.85742084 9.7402326,9.57617365 10.0957031,9.22070312 C10.4511737,8.8652326 10.7324208,8.44726803 10.9394531,7.96679688 C11.1464854,7.48632572 11.25,6.9765652 11.25,6.4375 C11.25,5.89062227 11.1464854,5.37695553 10.9394531,4.89648438 C10.7324208,4.41601322 10.4511737,3.99804865 10.0957031,3.64257812 C9.7402326,3.2871076 9.32226803,3.00586041 8.84179688,2.79882812 C8.36132572,2.59179584 7.8515652,2.48828125 7.3125,2.48828125 C6.76562227,2.48828125 6.25195553,2.59179584 5.77148438,2.79882812 C5.29101322,3.00586041 4.87304865,3.2871076 4.51757812,3.64257812 C4.1621076,3.99804865 3.88086041,4.41601322 3.67382812,4.89648438 C3.46679584,5.37695553 3.36328125,5.89062227 3.36328125,6.4375 C3.36328125,6.9765652 3.46679584,7.48632572 3.67382812,7.96679688 C3.88086041,8.44726803 4.1621076,8.8652326 4.51757812,9.22070312 C4.87304865,9.57617365 5.29101322,9.85742084 5.77148438,10.0644531 C6.25195553,10.2714854 6.76562227,10.375 7.3125,10.375 Z" id="Symbol-female---simple-line-icons"></path>
                </g>
            </g>
        </g>
    </g>
</svg>