<?xml version="1.0" encoding="UTF-8"?>
<svg width="239px" height="220px" viewBox="0 0 239 220" version="1.1" xmlns="http://www.w3.org/2000/svg" xmlns:xlink="http://www.w3.org/1999/xlink">
    <!-- Generator: Sketch 48.2 (47327) - http://www.bohemiancoding.com/sketch -->
    <title>chatting_2yvo</title>
    <desc>Created with Sketch.</desc>
    <defs>
        <linearGradient x1="10.8557606%" y1="101.73223%" x2="89.1469328%" y2="-1.7357846%" id="linearGradient-1">
            <stop stop-color="#808080" stop-opacity="0.25" offset="0%"></stop>
            <stop stop-color="#808080" stop-opacity="0.12" offset="54%"></stop>
            <stop stop-color="#808080" stop-opacity="0.1" offset="100%"></stop>
        </linearGradient>
        <linearGradient x1="53321%" y1="68858%" x2="53321%" y2="49028%" id="linearGradient-2">
            <stop stop-color="#808080" stop-opacity="0.25" offset="0%"></stop>
            <stop stop-color="#808080" stop-opacity="0.12" offset="54%"></stop>
            <stop stop-color="#808080" stop-opacity="0.1" offset="100%"></stop>
        </linearGradient>
        <linearGradient x1="-60279%" y1="42780%" x2="-60279%" y2="22950%" id="linearGradient-3">
            <stop stop-color="#808080" stop-opacity="0.25" offset="0%"></stop>
            <stop stop-color="#808080" stop-opacity="0.12" offset="54%"></stop>
            <stop stop-color="#808080" stop-opacity="0.1" offset="100%"></stop>
        </linearGradient>
        <linearGradient x1="37650%" y1="42750%" x2="37650%" y2="24261%" id="linearGradient-4">
            <stop stop-color="#808080" stop-opacity="0.25" offset="0%"></stop>
            <stop stop-color="#808080" stop-opacity="0.12" offset="54%"></stop>
            <stop stop-color="#808080" stop-opacity="0.1" offset="100%"></stop>
        </linearGradient>
        <linearGradient x1="331350%" y1="70250%" x2="331350%" y2="51761%" id="linearGradient-5">
            <stop stop-color="#808080" stop-opacity="0.25" offset="0%"></stop>
            <stop stop-color="#808080" stop-opacity="0.12" offset="54%"></stop>
            <stop stop-color="#808080" stop-opacity="0.1" offset="100%"></stop>
        </linearGradient>
    </defs>
    <g id="Mobile" stroke="none" stroke-width="1" fill="none" fill-rule="evenodd" transform="translate(-61.000000, -58.000000)">
        <g id="chatting_2yvo" transform="translate(61.000000, 58.000000)" fill-rule="nonzero">
            <g id="Group" opacity="0.5" transform="translate(61.940582, 12.941176)" fill="url(#linearGradient-1)">
                <path d="M104.746056,0.297948016 L4.28145386,0.541723666 C3.18628484,0.544114705 2.13696975,0.979954163 1.36455246,1.75327656 C0.592135163,2.52659895 0.159950981,3.57399475 0.163160556,4.66484268 L0.619405815,191.82736 C0.621806321,192.91821 1.05937141,193.963387 1.83575563,194.732758 C2.61213985,195.502129 3.66368261,195.932609 4.75884956,195.929412 L105.223451,195.685636 C106.319146,195.683247 107.36892,195.246994 108.141424,194.47302 C108.913929,193.699046 109.345758,192.650876 109.341745,191.559508 L108.885499,4.39699042 C108.882299,3.30666258 108.444381,2.26225871 107.668083,1.49353814 C106.891786,0.724817556 105.8407,0.294750581 104.746056,0.297948016 Z" id="Shape"></path>
            </g>
            <rect id="Rectangle-path" fill="#FFFFFF" transform="translate(116.693333, 111.007918) rotate(-0.140000) translate(-116.693333, -111.007918) " x="63.8006086" y="15.912843" width="105.785449" height="190.19015" rx="4.10506156"></rect>
            <path d="M143.046485,20.6155951 C142.424918,24.7838869 138.844137,27.877718 134.613502,27.9017784 L98.0746018,27.9890561 C93.8474301,27.9815158 90.2563891,24.9066773 89.6144248,20.7450068 L70.2617699,20.7931601 C69.1959743,20.7955519 68.1747852,21.2195632 67.4228538,21.9719156 C66.6709224,22.724268 66.2498436,23.7433324 66.2522503,24.8049248 L66.6722377,197.455267 C66.6746381,198.517382 67.1007431,199.535001 67.8567283,200.284054 C68.6127135,201.033106 69.6365893,201.452171 70.7029077,201.448974 L163.160556,201.226265 C164.226352,201.223874 165.247541,200.799862 165.999472,200.04751 C166.751404,199.295157 167.172483,198.276093 167.170076,197.214501 L166.750088,24.5641587 C166.747687,23.5025663 166.321997,22.4854044 165.566666,21.7364384 C164.811335,20.9874724 163.788236,20.5680542 162.72244,20.5704514 L143.046485,20.6155951 Z" id="869b38ff-715e-463a-98e7-ca2bce61d391" fill="#FFFFFF" opacity="0.4"></path>
            <rect id="Rectangle-path" fill="#DBDBDB" transform="translate(115.521935, 23.705246) rotate(-0.860000) translate(-115.521935, -23.705246) " x="103.735095" y="22.9709094" width="23.5736789" height="1.46867305" rx="0.601915185"></rect>
            <ellipse id="Oval" fill="#DBDBDB" transform="translate(132.310485, 23.303794) rotate(-0.860000) translate(-132.310485, -23.303794) " cx="132.310485" cy="23.303794" rx="1" ry="1"></ellipse>
            <g id="Group" opacity="0.5" transform="translate(69.192162, 121.887825)" fill="url(#linearGradient-2)">
                <path d="M59.8466877,29.9844049 C59.8517806,15.8008044 49.8035074,3.58609913 35.8406488,0.80260577 C21.8777901,-1.98088759 7.88390298,5.44101732 2.40825757,18.5340642 C-3.06738784,31.6271111 1.49817606,46.7496679 13.3157143,54.6629275 L13.3338432,54.7953488 C14.3094362,55.726518 15.4606486,56.4558466 16.7209355,56.9411765 L16.7602149,56.8087551 C18.1591656,58.0125855 24.0480531,59.9176471 30.8131732,59.8995896 L30.9612263,59.8995896 C35.2457016,59.8995896 39.898799,59.1471956 43.9898989,56.9411765 C43.9898989,56.9411765 44.0261568,56.8629275 44.0805436,56.7154583 C45.116837,56.2305278 46.0677451,55.5821515 46.896574,54.7953488 C46.9126886,54.680985 46.9288032,54.5686275 46.9449178,54.4582763 C55.0249384,48.910447 59.8490323,39.7594349 59.8466877,29.9844049 Z" id="Shape"></path>
            </g>
            <ellipse id="Oval" fill="#F5F5F5" cx="99.1683818" cy="151.875239" rx="28.9730847" ry="28.8588235"></ellipse>
            <path d="M88.1006574,163.741997 C88.1006574,163.741997 81.1965487,164.304788 83.0245512,176.830643 C83.9698832,177.736364 85.0862187,178.446282 86.3089128,178.919289 L90.1915297,165.830643 L88.1006574,163.741997 Z" id="Shape" fill="#FFD1BC"></path>
            <path d="M110.501997,163.741997 C110.501997,163.741997 117.406106,164.304788 115.578104,176.830643 C114.632772,177.736364 113.516436,178.446282 112.293742,178.919289 L108.411125,165.824624 L110.501997,163.741997 Z" id="Shape" fill="#FFD1BC"></path>
            <path d="M88.3997851,143.21368 C88.3997851,143.21368 85.1154235,152.735978 83.3236789,151.833105 C83.3236789,151.833105 100.612655,166.709439 115.880253,151.833105 C115.880253,151.833105 113.191125,147.071956 109.308508,143.204651 L88.3997851,143.21368 Z" id="Shape" fill="#333333"></path>
            <ellipse id="Oval" fill="#333333" cx="99.4826169" cy="142.319836" rx="12.8443616" ry="12.7937073"></ellipse>
            <path d="M110.369052,163.741997 L87.9707332,163.741997 L85.8798609,172.668399 C85.8798609,172.668399 84.6531353,176.800547 86.1820101,178.618331 C87.710885,180.436115 101.978369,184.568263 112.468989,178.919289 C113.384008,176.540125 113.490152,173.927657 112.771138,171.482627 C111.562541,167.317373 112.468989,171.181669 112.468989,171.181669 L110.369052,163.741997 Z" id="Shape" fill="#000000" opacity="0.1"></path>
            <path d="M110.66818,163.741997 L88.2668394,163.741997 L86.1759671,172.668399 C86.1759671,172.668399 84.9492415,176.800547 86.4781163,178.618331 C88.0069912,180.436115 102.274475,184.568263 112.765095,178.919289 C113.680115,176.540125 113.786258,173.927657 113.067244,171.482627 C111.858647,167.317373 112.765095,171.181669 112.765095,171.181669 L110.66818,163.741997 Z" id="Shape" fill="#000000" opacity="0.1"></path>
            <path d="M110.501997,163.741997 L88.1006574,163.741997 L86.0097851,172.668399 C86.0097851,172.668399 84.7830594,176.800547 86.3119343,178.618331 C87.8408091,180.436115 102.108293,184.568263 112.598913,178.919289 C113.513933,176.540125 113.620076,173.927657 112.901062,171.482627 C111.692465,167.317373 112.598913,171.181669 112.598913,171.181669 L110.501997,163.741997 Z" id="Shape" fill="#F79A00"></path>
            <path d="M94.9715297,156.335431 L103.939317,156.335431 L103.939317,164.972914 C103.939317,165.75913 103.625758,166.513145 103.067617,167.069084 C102.509477,167.625023 101.752477,167.937346 100.963148,167.937346 L97.9416561,167.937346 C96.2979632,167.937346 94.9654867,166.610125 94.9654867,164.972914 L94.9654867,156.335431 L94.9715297,156.335431 Z" id="Shape" fill="#000000" opacity="0.1"></path>
            <path d="M94.9715297,156.007387 L103.939317,156.007387 L103.939317,164.64487 C103.939317,165.431086 103.625758,166.185101 103.067617,166.74104 C102.509477,167.296979 101.752477,167.609302 100.963148,167.609302 L97.9416561,167.609302 C96.2979632,167.609302 94.9654867,166.282081 94.9654867,164.64487 L94.9654867,156.007387 L94.9715297,156.007387 Z" id="Shape" fill="#FFD1BC"></path>
            <path d="M94.9896587,157.292476 C97.877958,158.367378 101.057325,158.375919 103.951403,157.316553 L103.951403,156.221067 L94.9896587,156.221067 L94.9896587,157.292476 Z" id="Shape" fill="#000000" opacity="0.1"></path>
            <ellipse id="Oval" fill="#FFD1BC" cx="99.4826169" cy="145.097674" rx="12.8443616" ry="12.7937073"></ellipse>
            <path d="M87.2062958,140.237209 L111.698508,140.237209 C111.698508,140.237209 109.607636,130.386867 100.349785,131.015869 C91.0919343,131.64487 87.2062958,140.237209 87.2062958,140.237209 Z" id="Shape" fill="#333333"></path>
            <ellipse id="Oval" fill="#FFD1BC" cx="86.9071681" cy="144.552941" rx="1.19348925" ry="2.23009576"></ellipse>
            <ellipse id="Oval" fill="#FFD1BC" cx="111.994614" cy="144.552941" rx="1.19348925" ry="2.23009576"></ellipse>
            <path d="M87.2062958,140.568263 L111.698508,140.568263 C111.698508,140.568263 109.607636,130.717921 100.349785,131.346922 C91.0919343,131.975923 87.2062958,140.568263 87.2062958,140.568263 Z" id="Shape" fill="#000000" opacity="0.1"></path>
            <g id="Group" opacity="0.5" transform="translate(104.543616, 43.337893)" fill="url(#linearGradient-3)">
                <path d="M0.284020228,30.0506156 C0.278927338,15.8670151 10.3272005,3.6523098 24.2900592,0.86881644 C38.2529178,-1.91467692 52.246805,5.50722799 57.7224504,18.6002749 C63.1980958,31.6933218 58.6325319,46.8158786 46.8149937,54.7291382 L46.7968647,54.8615595 C45.8234188,55.8013659 44.6720594,56.538972 43.4097724,57.0314637 L43.370493,56.8990424 C41.9715424,58.1028728 36.0826549,60.0079343 29.3175348,59.9898769 L29.1694817,59.9898769 C24.8850063,59.9898769 20.231909,59.2374829 16.1408091,57.0314637 C16.1408091,57.0314637 16.1045512,56.9532148 16.0501643,56.8057456 C15.0138709,56.3208151 14.0629628,55.6724387 13.234134,54.8856361 C13.2180194,54.7712722 13.2019048,54.6589147 13.1857901,54.5485636 C5.0987256,48.9959054 0.273719037,39.8341578 0.284020228,30.0506156 Z" id="Shape"></path>
            </g>
            <ellipse id="Oval" fill="#F5F5F5" cx="134.695082" cy="73.3915185" rx="28.9730847" ry="28.8588235"></ellipse>
            <path d="M123.337295,84.3824897 C123.337295,84.3824897 116.433186,84.9452804 118.261188,97.4711354 C119.207056,98.374697 120.323355,99.0825466 121.54555,99.553762 L125.428167,86.4651163 L123.337295,84.3824897 Z" id="Shape" fill="#BE7C5E"></path>
            <path d="M145.735613,84.3824897 C145.735613,84.3824897 152.639722,84.9452804 150.811719,97.4711354 C149.865852,98.374697 148.749553,99.0825466 147.527358,99.553762 L143.644741,86.4651163 L145.735613,84.3824897 Z" id="Shape" fill="#BE7C5E"></path>
            <path d="M123.633401,63.8541724 C123.633401,63.8541724 123.101618,65.3950752 122.349267,67.1647059 C120.705575,71.0771546 122.581922,86.0377565 126.512882,87.6298222 C130.92426,89.4355677 136.725525,90.5671683 142.753401,88.3792066 C147.989646,86.4771546 149.606144,69.4188782 145.901795,65.2807114 C145.4667,64.7931601 145.013477,64.3086183 144.539102,63.8391245 L123.633401,63.8541724 Z" id="Shape" fill="#333333"></path>
            <ellipse id="Oval" fill="#333333" cx="134.716233" cy="62.9633379" rx="12.8443616" ry="12.7937073"></ellipse>
            <path d="M145.605689,84.3824897 L123.204349,84.3824897 L121.113477,93.3088919 C121.113477,93.3088919 119.886751,97.4410397 121.415626,99.2588235 C122.944501,101.076607 137.211985,105.208755 147.702604,99.5597811 C148.617624,97.1806179 148.723768,94.5681499 148.004753,92.123119 C146.796157,87.9578659 147.702604,91.8221614 147.702604,91.8221614 L145.605689,84.3824897 Z" id="Shape" fill="#000000" opacity="0.1"></path>
            <path d="M145.901795,84.3824897 L123.500455,84.3824897 L121.409583,93.3088919 C121.409583,93.3088919 120.182857,97.4410397 121.711732,99.2588235 C123.240607,101.076607 137.508091,105.208755 147.99871,99.5597811 C148.91373,97.1806179 149.019874,94.5681499 148.30086,92.123119 C147.092263,87.9578659 147.99871,91.8221614 147.99871,91.8221614 L145.901795,84.3824897 Z" id="Shape" fill="#000000" opacity="0.1"></path>
            <path d="M145.735613,84.3824897 L123.337295,84.3824897 L121.246422,93.3088919 C121.246422,93.3088919 120.019697,97.4410397 121.548571,99.2588235 C123.077446,101.076607 137.34493,105.208755 147.83555,99.5597811 C148.75057,97.1806179 148.856714,94.5681499 148.137699,92.123119 C146.929102,87.9578659 147.83555,91.8221614 147.83555,91.8221614 L145.735613,84.3824897 Z" id="Shape" fill="#65C101"></path>
            <path d="M130.205145,76.978933 L139.16689,76.978933 L139.16689,85.6164159 C139.16689,87.2536266 137.834414,88.5808482 136.190721,88.5808482 L133.169229,88.5808482 C131.525536,88.5808482 130.193059,87.2536266 130.193059,85.6164159 L130.193059,76.978933 L130.205145,76.978933 Z" id="Shape" fill="#000000" opacity="0.1"></path>
            <path d="M130.205145,76.6478796 L139.16689,76.6478796 L139.16689,85.2853625 C139.16689,86.9225733 137.834414,88.2497948 136.190721,88.2497948 L133.169229,88.2497948 C132.3799,88.2497948 131.622899,87.9374716 131.064759,87.3815327 C130.506619,86.8255938 130.193059,86.0715788 130.193059,85.2853625 L130.193059,76.6478796 L130.205145,76.6478796 Z" id="Shape" fill="#BE7C5E"></path>
            <path d="M130.226296,77.9329685 C133.114595,79.0078702 136.293962,79.0164119 139.18804,77.9570451 L139.18804,76.8615595 L130.226296,76.8615595 L130.226296,77.9329685 Z" id="Shape" fill="#000000" opacity="0.1"></path>
            <ellipse id="Oval" fill="#BE7C5E" cx="134.716233" cy="65.7381669" rx="12.8443616" ry="12.7937073"></ellipse>
            <path d="M122.439912,60.8807114 L146.932124,60.8807114 C146.932124,60.8807114 144.841252,51.0303694 135.583401,51.6593707 C126.32555,52.2883721 122.439912,60.8807114 122.439912,60.8807114 Z" id="Shape" fill="#333333"></path>
            <ellipse id="Oval" fill="#BE7C5E" cx="122.140784" cy="65.1934337" rx="1.19348925" ry="2.23009576"></ellipse>
            <ellipse id="Oval" fill="#BE7C5E" cx="147.22823" cy="65.1934337" rx="1.19348925" ry="2.23009576"></ellipse>
            <path d="M122.439912,61.2117647 L146.932124,61.2117647 C146.932124,61.2117647 144.841252,51.3614227 135.583401,51.9904241 C126.32555,52.6194254 122.439912,61.2117647 122.439912,61.2117647 Z" id="Shape" fill="#000000" opacity="0.1"></path>
            <g id="Group" opacity="0.5" transform="translate(1.510746, 47.551300)" fill="url(#linearGradient-4)">
                <path d="M0,0.0331053352 L0,42.9857729 L67.9412642,42.9857729 C67.9412642,42.9857729 72.9569406,52.8180575 81.5802781,55.6771546 C81.5802781,55.6771546 78.8276991,48.7129959 81.7011378,42.9857729 L100.615676,42.9857729 L100.615676,0.0331053352 L0,0.0331053352 Z" id="Shape"></path>
            </g>
            <path d="M4.2300885,49.0560876 L4.2300885,89.6853625 L72.2136536,89.6853625 C72.2136536,89.6853625 72.2136536,97.8112175 80.3716814,100.519836 C80.3716814,100.519836 77.6523388,95.1025992 80.3716814,89.6853625 L99.4070796,89.6853625 L99.4070796,49.0560876 L4.2300885,49.0560876 Z" id="Shape" fill="#FFFFFF"></path>
            <rect id="Rectangle-path" fill="#65C101" x="12.3881163" y="57.1819425" width="54.3868521" height="5.41723666"></rect>
            <rect id="Rectangle-path" fill="#65C101" x="12.3881163" y="65.3077975" width="73.4222503" height="5.41723666"></rect>
            <rect id="Rectangle-path" fill="#65C101" x="12.3881163" y="73.4336525" width="65.2642225" height="5.41723666"></rect>
            <g id="Group" opacity="0.5" transform="translate(132.039191, 130.314637)" fill="url(#linearGradient-5)">
                <path d="M100.615676,0.0331053352 L100.615676,42.9857729 L32.6774336,42.9857729 C32.6774336,42.9857729 27.6617573,52.8180575 19.0353982,55.6771546 C19.0353982,55.6771546 21.7879772,48.7129959 18.9145386,42.9857729 L0,42.9857729 L0,0.0331053352 L100.615676,0.0331053352 Z" id="Shape"></path>
            </g>
            <path d="M229.935525,131.819425 L229.935525,172.4487 L161.95196,172.4487 C161.95196,172.4487 161.95196,180.574555 153.793932,183.283174 C153.793932,183.283174 156.513274,177.865937 153.793932,172.4487 L134.758534,172.4487 L134.758534,131.819425 L229.935525,131.819425 Z" id="Shape" fill="#FFFFFF"></path>
            <rect id="Rectangle-path" fill="#F79A00" x="145.938053" y="139.94528" width="54.3868521" height="5.41723666"></rect>
            <rect id="Rectangle-path" fill="#F79A00" x="145.938053" y="148.071135" width="73.4222503" height="5.41723666"></rect>
            <rect id="Rectangle-path" fill="#F79A00" x="145.938053" y="156.19699" width="65.2642225" height="5.41723666"></rect>
            <g id="Group" opacity="0.5" transform="translate(23.265487, 214.883721)" fill="#F79A00">
                <rect id="Rectangle-path" x="2.11504425" y="0" width="1" height="5.11627907"></rect>
                <rect id="Rectangle-path" transform="translate(2.568268, 2.558140) rotate(90.000000) translate(-2.568268, -2.558140) " x="2.11504425" y="0" width="1" height="5.11627907"></rect>
            </g>
            <g id="Group" opacity="0.5" transform="translate(189.145386, 57.783858)" fill="#65C101">
                <rect id="Rectangle-path" x="2.11504425" y="0" width="1" height="5.11627907"></rect>
                <rect id="Rectangle-path" transform="translate(2.568268, 2.558140) rotate(90.000000) translate(-2.568268, -2.558140) " x="2.11504425" y="0" width="1" height="5.11627907"></rect>
            </g>
            <g id="Group" opacity="0.5" transform="translate(208.482933, 184.186047)" fill="#F79A00">
                <rect id="Rectangle-path" x="2.11504425" y="0" width="1" height="5.11627907"></rect>
                <rect id="Rectangle-path" transform="translate(2.568268, 2.558140) rotate(90.000000) translate(-2.568268, -2.558140) " x="2.11504425" y="0" width="1" height="5.11627907"></rect>
            </g>
            <g id="Group" opacity="0.5" transform="translate(151.376738, 0.000000)" fill="#B2E080">
                <rect id="Rectangle-path" x="2.11504425" y="0" width="1" height="5.11627907"></rect>
                <rect id="Rectangle-path" transform="translate(2.568268, 2.558140) rotate(90.000000) translate(-2.568268, -2.558140) " x="2.11504425" y="0" width="1" height="5.11627907"></rect>
            </g>
            <path d="M78.1659924,214.375103 C77.6541645,214.146114 77.3947128,213.572403 77.5616941,213.038851 C77.574613,212.998815 77.5827268,212.957395 77.585866,212.915458 C77.6017037,212.670861 77.4542254,212.444992 77.2233336,212.360226 C76.9924419,212.275459 76.7330736,212.351964 76.5857522,212.54829 C76.5614451,212.58194 76.5411646,212.618301 76.5253224,212.656635 C76.2954275,213.166444 75.7194448,213.424873 75.18378,213.25855 C75.1435852,213.245682 75.1020019,213.2376 75.0598989,213.234473 C74.8143331,213.218698 74.5875701,213.365595 74.502468,213.595576 C74.4173659,213.825557 74.4941734,214.083903 74.6912769,214.230643 C74.7250599,214.254854 74.7615648,214.275055 74.8000506,214.290834 C75.3118785,214.519823 75.5713302,215.093534 75.4043489,215.627086 C75.39143,215.667123 75.3833162,215.708542 75.380177,215.750479 C75.3643393,215.995076 75.5118175,216.220945 75.7427093,216.305711 C75.9736011,216.390478 76.2329694,216.313973 76.3802908,216.117647 C76.4045979,216.083997 76.4248784,216.047636 76.4407206,216.009302 C76.6706155,215.499493 77.2465982,215.241064 77.782263,215.407387 C77.8224578,215.420255 77.864041,215.428337 77.9061441,215.431464 C78.1517099,215.447239 78.3784729,215.300342 78.463575,215.070361 C78.5486771,214.84038 78.4718696,214.582035 78.2747661,214.435294 C78.2409831,214.411083 78.2044781,214.390882 78.1659924,214.375103 Z" id="Shape" fill="#F79A00" opacity="0.5"></path>
            <path d="M17.4944374,118.866211 C16.9826095,118.637222 16.7231578,118.063511 16.8901391,117.529959 C16.903058,117.489923 16.9111718,117.448503 16.914311,117.406566 C16.9301487,117.161969 16.7826704,116.9361 16.5517787,116.851334 C16.3208869,116.766567 16.0615186,116.843072 15.9141972,117.039398 C15.8898901,117.073048 15.8696096,117.109409 15.8537674,117.147743 C15.6238725,117.657552 15.0478898,117.915981 14.512225,117.749658 C14.4720302,117.73679 14.430447,117.728708 14.3883439,117.725581 C14.1427781,117.709806 13.9160151,117.856703 13.830913,118.086684 C13.7458109,118.316665 13.8226184,118.575011 14.0197219,118.721751 C14.0535049,118.745962 14.0900098,118.766163 14.1284956,118.781943 C14.6403235,119.010931 14.8997752,119.584642 14.7327939,120.118194 C14.719875,120.158231 14.7117612,120.19965 14.708622,120.241587 C14.682608,120.490882 14.8279433,120.726499 15.0629651,120.816048 C15.2979869,120.905596 15.5640917,120.826746 15.7117573,120.623803 C15.7360644,120.590153 15.7563449,120.553792 15.7721871,120.515458 C16.002082,120.005649 16.5780647,119.74722 17.1137295,119.913543 C17.1539243,119.926411 17.1955075,119.934493 17.2376106,119.93762 C17.4831764,119.953395 17.7099394,119.806498 17.7950415,119.576517 C17.8801436,119.346536 17.8033361,119.08819 17.6062326,118.94145 C17.5723059,118.91177 17.5347419,118.886489 17.4944374,118.866211 Z" id="Shape" fill="#F79A00" opacity="0.5"></path>
            <path d="M50.4286979,145.049521 C49.9168699,144.820533 49.6574182,144.246822 49.8243995,143.713269 C49.8373184,143.673233 49.8454322,143.631814 49.8485714,143.589877 C49.8644091,143.34528 49.7169309,143.119411 49.4860391,143.034644 C49.2551473,142.949878 48.9957791,143.026382 48.8484576,143.222709 C48.8241506,143.256358 48.80387,143.292719 48.7880278,143.331053 C48.5581329,143.840863 47.9821502,144.099291 47.4464855,143.932969 C47.4062906,143.920101 47.3647074,143.912019 47.3226043,143.908892 C47.0770385,143.893117 46.8502755,144.040013 46.7651734,144.269995 C46.6800713,144.499976 46.7568788,144.758321 46.9539823,144.905062 C46.9877653,144.929273 47.0242703,144.949473 47.062756,144.965253 C47.5745839,145.194241 47.8340356,145.767953 47.6670544,146.301505 C47.6541354,146.341541 47.6460216,146.38296 47.6428824,146.424897 C47.6168685,146.674192 47.7622037,146.90981 47.9972255,146.999358 C48.2322473,147.088906 48.4983521,147.010057 48.6460177,146.807114 C48.6703248,146.773464 48.6906053,146.737103 48.7064475,146.698769 C48.9363424,146.188959 49.5123251,145.930531 50.0479899,146.096854 C50.0881847,146.109722 50.129768,146.117803 50.171871,146.12093 C50.4174368,146.136705 50.6441998,145.989809 50.7293019,145.759828 C50.814404,145.529846 50.7375966,145.271501 50.540493,145.124761 C50.5065663,145.09508 50.4690024,145.0698 50.4286979,145.049521 Z" id="Shape" fill="#F79A00" opacity="0.5"></path>
            <path d="M238.365487,216.075513 C237.853659,215.846525 237.594207,215.272814 237.761188,214.739261 C237.774107,214.699225 237.782221,214.657806 237.78536,214.615869 C237.801198,214.371271 237.65372,214.145403 237.422828,214.060636 C237.191936,213.97587 236.932568,214.052374 236.785247,214.2487 C236.760939,214.28235 236.740659,214.318711 236.724817,214.357045 C236.494922,214.866855 235.918939,215.125283 235.383274,214.95896 C235.343079,214.946092 235.301496,214.938011 235.259393,214.934884 C235.013827,214.919109 234.787064,215.066005 234.701962,215.295986 C234.61686,215.525968 234.693668,215.784313 234.890771,215.931053 C234.924554,215.955265 234.961059,215.975465 234.999545,215.991245 C235.511373,216.220233 235.770824,216.793944 235.603843,217.327497 C235.590924,217.367533 235.58281,217.408952 235.579671,217.450889 C235.553657,217.700184 235.698993,217.935802 235.934014,218.02535 C236.169036,218.114898 236.435141,218.036048 236.582807,217.833105 C236.607114,217.799456 236.627394,217.763095 236.643236,217.724761 C236.873131,217.214951 237.449114,216.956523 237.984779,217.122845 C238.024974,217.135713 238.066557,217.143795 238.10866,217.146922 C238.354226,217.162697 238.580989,217.015801 238.666091,216.785819 C238.751193,216.555838 238.674385,216.297493 238.477282,216.150752 C238.443355,216.121072 238.405791,216.095791 238.365487,216.075513 Z" id="Shape" fill="#F79A00" opacity="0.5"></path>
            <ellipse id="Oval" fill="#65C101" opacity="0.5" cx="1.81289507" cy="198.331053" rx="1.81289507" ry="1.80574555"></ellipse>
            <ellipse id="Oval" fill="#65C101" opacity="0.5" cx="206.367889" cy="19.2612859" rx="1.81289507" ry="1.80574555"></ellipse>
            <ellipse id="Oval" fill="#65C101" opacity="0.5" cx="31.4235145" cy="22.872777" rx="1.81289507" ry="1.80574555"></ellipse>
            <ellipse id="Oval" fill="#65C101" opacity="0.5" cx="208.180784" cy="104.131327" rx="1.81289507" ry="1.80574555"></ellipse>
        </g>
    </g>
</svg>