<?xml version="1.0" encoding="UTF-8"?>
<svg width="292px" height="200px" viewBox="0 0 292 200" version="1.1" xmlns="http://www.w3.org/2000/svg" xmlns:xlink="http://www.w3.org/1999/xlink">
    <!-- Generator: Sketch 48.2 (47327) - http://www.bohemiancoding.com/sketch -->
    <title>news_go0e</title>
    <desc>Created with Sketch.</desc>
    <defs>
        <linearGradient x1="50.0053057%" y1="99.9526347%" x2="50.0053057%" y2="-0.0118413262%" id="linearGradient-1">
            <stop stop-color="#808080" stop-opacity="0.25" offset="0%"></stop>
            <stop stop-color="#808080" stop-opacity="0.12" offset="54%"></stop>
            <stop stop-color="#808080" stop-opacity="0.1" offset="100%"></stop>
        </linearGradient>
        <linearGradient x1="37041%" y1="52973%" x2="37041%" y2="51461%" id="linearGradient-2">
            <stop stop-color="#808080" stop-opacity="0.25" offset="0%"></stop>
            <stop stop-color="#808080" stop-opacity="0.12" offset="54%"></stop>
            <stop stop-color="#808080" stop-opacity="0.1" offset="100%"></stop>
        </linearGradient>
        <linearGradient x1="47213%" y1="50775%" x2="47213%" y2="49263%" id="linearGradient-3">
            <stop stop-color="#808080" stop-opacity="0.25" offset="0%"></stop>
            <stop stop-color="#808080" stop-opacity="0.12" offset="54%"></stop>
            <stop stop-color="#808080" stop-opacity="0.1" offset="100%"></stop>
        </linearGradient>
        <linearGradient x1="64614%" y1="51773%" x2="64614%" y2="49463%" id="linearGradient-4">
            <stop stop-color="#808080" stop-opacity="0.25" offset="0%"></stop>
            <stop stop-color="#808080" stop-opacity="0.12" offset="54%"></stop>
            <stop stop-color="#808080" stop-opacity="0.1" offset="100%"></stop>
        </linearGradient>
        <linearGradient x1="55724%" y1="56318%" x2="55724%" y2="54806%" id="linearGradient-5">
            <stop stop-color="#808080" stop-opacity="0.25" offset="0%"></stop>
            <stop stop-color="#808080" stop-opacity="0.12" offset="54%"></stop>
            <stop stop-color="#808080" stop-opacity="0.1" offset="100%"></stop>
        </linearGradient>
        <linearGradient x1="44124%" y1="62584%" x2="44124%" y2="61073%" id="linearGradient-6">
            <stop stop-color="#808080" stop-opacity="0.25" offset="0%"></stop>
            <stop stop-color="#808080" stop-opacity="0.12" offset="54%"></stop>
            <stop stop-color="#808080" stop-opacity="0.1" offset="100%"></stop>
        </linearGradient>
        <linearGradient x1="66202%" y1="55999%" x2="66202%" y2="53688%" id="linearGradient-7">
            <stop stop-color="#808080" stop-opacity="0.25" offset="0%"></stop>
            <stop stop-color="#808080" stop-opacity="0.12" offset="54%"></stop>
            <stop stop-color="#808080" stop-opacity="0.1" offset="100%"></stop>
        </linearGradient>
        <linearGradient x1="71848%" y1="68772%" x2="71848%" y2="66462%" id="linearGradient-8">
            <stop stop-color="#808080" stop-opacity="0.25" offset="0%"></stop>
            <stop stop-color="#808080" stop-opacity="0.12" offset="54%"></stop>
            <stop stop-color="#808080" stop-opacity="0.1" offset="100%"></stop>
        </linearGradient>
        <linearGradient x1="96018%" y1="80218%" x2="96018%" y2="77908%" id="linearGradient-9">
            <stop stop-color="#808080" stop-opacity="0.25" offset="0%"></stop>
            <stop stop-color="#808080" stop-opacity="0.12" offset="54%"></stop>
            <stop stop-color="#808080" stop-opacity="0.1" offset="100%"></stop>
        </linearGradient>
        <linearGradient x1="57626%" y1="65026%" x2="57626%" y2="63514%" id="linearGradient-10">
            <stop stop-color="#808080" stop-opacity="0.25" offset="0%"></stop>
            <stop stop-color="#808080" stop-opacity="0.12" offset="54%"></stop>
            <stop stop-color="#808080" stop-opacity="0.1" offset="100%"></stop>
        </linearGradient>
        <linearGradient x1="95334%" y1="71538%" x2="95334%" y2="70026%" id="linearGradient-11">
            <stop stop-color="#808080" stop-opacity="0.25" offset="0%"></stop>
            <stop stop-color="#808080" stop-opacity="0.12" offset="54%"></stop>
            <stop stop-color="#808080" stop-opacity="0.1" offset="100%"></stop>
        </linearGradient>
        <linearGradient x1="90715%" y1="58290%" x2="90715%" y2="56779%" id="linearGradient-12">
            <stop stop-color="#808080" stop-opacity="0.25" offset="0%"></stop>
            <stop stop-color="#808080" stop-opacity="0.12" offset="54%"></stop>
            <stop stop-color="#808080" stop-opacity="0.1" offset="100%"></stop>
        </linearGradient>
        <linearGradient x1="106636%" y1="43694%" x2="106636%" y2="42182%" id="linearGradient-13">
            <stop stop-color="#808080" stop-opacity="0.25" offset="0%"></stop>
            <stop stop-color="#808080" stop-opacity="0.12" offset="54%"></stop>
            <stop stop-color="#808080" stop-opacity="0.1" offset="100%"></stop>
        </linearGradient>
        <linearGradient x1="40847%" y1="59330%" x2="40847%" y2="57818%" id="linearGradient-14">
            <stop stop-color="#808080" stop-opacity="0.25" offset="0%"></stop>
            <stop stop-color="#808080" stop-opacity="0.12" offset="54%"></stop>
            <stop stop-color="#808080" stop-opacity="0.1" offset="100%"></stop>
        </linearGradient>
        <linearGradient x1="79518%" y1="56241%" x2="79518%" y2="53931%" id="linearGradient-15">
            <stop stop-color="#808080" stop-opacity="0.25" offset="0%"></stop>
            <stop stop-color="#808080" stop-opacity="0.12" offset="54%"></stop>
            <stop stop-color="#808080" stop-opacity="0.1" offset="100%"></stop>
        </linearGradient>
        <linearGradient x1="81898%" y1="74495%" x2="81898%" y2="69209%" id="linearGradient-16">
            <stop stop-color="#808080" stop-opacity="0.25" offset="0%"></stop>
            <stop stop-color="#808080" stop-opacity="0.12" offset="54%"></stop>
            <stop stop-color="#808080" stop-opacity="0.1" offset="100%"></stop>
        </linearGradient>
        <linearGradient x1="100963%" y1="94157%" x2="100963%" y2="83119%" id="linearGradient-17">
            <stop stop-color="#808080" stop-opacity="0.25" offset="0%"></stop>
            <stop stop-color="#808080" stop-opacity="0.12" offset="54%"></stop>
            <stop stop-color="#808080" stop-opacity="0.1" offset="100%"></stop>
        </linearGradient>
        <linearGradient x1="98397%" y1="57848%" x2="98397%" y2="52562%" id="linearGradient-18">
            <stop stop-color="#808080" stop-opacity="0.25" offset="0%"></stop>
            <stop stop-color="#808080" stop-opacity="0.12" offset="54%"></stop>
            <stop stop-color="#808080" stop-opacity="0.1" offset="100%"></stop>
        </linearGradient>
        <linearGradient x1="105869%" y1="65983%" x2="105869%" y2="60697%" id="linearGradient-19">
            <stop stop-color="#808080" stop-opacity="0.25" offset="0%"></stop>
            <stop stop-color="#808080" stop-opacity="0.12" offset="54%"></stop>
            <stop stop-color="#808080" stop-opacity="0.1" offset="100%"></stop>
        </linearGradient>
        <linearGradient x1="69197%" y1="61933%" x2="69197%" y2="59623%" id="linearGradient-20">
            <stop stop-color="#808080" stop-opacity="0.25" offset="0%"></stop>
            <stop stop-color="#808080" stop-opacity="0.12" offset="54%"></stop>
            <stop stop-color="#808080" stop-opacity="0.1" offset="100%"></stop>
        </linearGradient>
        <linearGradient x1="88274%" y1="61751%" x2="88274%" y2="59441%" id="linearGradient-21">
            <stop stop-color="#808080" stop-opacity="0.25" offset="0%"></stop>
            <stop stop-color="#808080" stop-opacity="0.12" offset="54%"></stop>
            <stop stop-color="#808080" stop-opacity="0.1" offset="100%"></stop>
        </linearGradient>
    </defs>
    <g id="Mobile-Copy-2" stroke="none" stroke-width="1" fill="none" fill-rule="evenodd" transform="translate(-34.000000, -108.000000)">
        <g id="news_go0e" transform="translate(34.500000, 108.000000)" fill-rule="nonzero">
            <rect id="Rectangle-path" fill="#65C101" x="5.67159645" y="72.2411576" width="24.3155987" height="3.68167203"></rect>
            <polygon id="Shape" fill="#EEEEEE" points="5.67159645 75.8360129 2.91967849 200 4.63922395 200 8.44932373 75.9228296"></polygon>
            <polygon id="Shape" fill="#EEEEEE" points="29.983969 75.8360129 32.7326608 200 31.0163415 200 27.2062417 75.9228296"></polygon>
            <polygon id="Shape" fill="#E0E0E0" points="10.852816 75.9228296 7.904102 200 9.96562084 200 12.6885033 75.8360129"></polygon>
            <polygon id="Shape" fill="#E0E0E0" points="25.3157095 75.9228296 28.2676497 200 26.2029047 200 23.4832483 75.8360129"></polygon>
            <rect id="Rectangle-path" fill="#E0E0E0" x="10.3108204" y="184.92926" width="15.6372173" height="1.88424437"></rect>
            <rect id="Rectangle-path" fill="#E0E0E0" x="9.79463415" y="174.482315" width="16.8405765" height="1.88424437"></rect>
            <rect id="Rectangle-path" fill="#E0E0E0" x="10.3108204" y="164.205788" width="16.3243902" height="1.88424437"></rect>
            <rect id="Rectangle-path" fill="#E0E0E0" x="10.3108204" y="153.758842" width="15.6372173" height="1.88424437"></rect>
            <rect id="Rectangle-path" fill="#E0E0E0" x="10.3108204" y="142.971061" width="15.6372173" height="1.71382637"></rect>
            <rect id="Rectangle-path" fill="#E0E0E0" x="10.8270067" y="132.694534" width="15.121031" height="2.05466238"></rect>
            <rect id="Rectangle-path" fill="#E0E0E0" x="10.8270067" y="122.418006" width="14.6048448" height="1.36977492"></rect>
            <rect id="Rectangle-path" fill="#E0E0E0" x="11.3399667" y="111.459807" width="12.8885255" height="2.22508039"></rect>
            <rect id="Rectangle-path" fill="#E0E0E0" x="11.3399667" y="101.18328" width="13.4014856" height="1.88424437"></rect>
            <rect id="Rectangle-path" fill="#E0E0E0" x="11.3399667" y="90.5659164" width="13.4014856" height="2.05466238"></rect>
            <rect id="Rectangle-path" fill="#E0E0E0" x="12.0271397" y="80.1189711" width="12.2013525" height="2.05466238"></rect>
            <rect id="Rectangle-path" fill="#65C101" x="0" y="65.2186495" width="35.7394457" height="7.53697749"></rect>
            <g id="Group" opacity="0.5" transform="translate(6.129712, 12.218650)" fill="url(#linearGradient-1)">
                <path d="M27.7224279,0 L15.2920177,8.07073955 C15.1703684,7.57149449 14.886872,7.12619013 14.4854767,6.80385852 C14.6311242,6.41491906 14.6547511,5.99105003 14.5532262,5.58842444 C14.5345714,5.47252019 14.4893035,5.36247799 14.4209534,5.26688103 C14.290596,5.14500188 14.1085799,5.09454325 13.9338027,5.1318328 L11.9593902,5.26045016 C11.7294951,5.24942518 11.5024658,5.3150447 11.3141574,5.44694534 C11.0367073,5.67845659 10.9528271,6.16398714 10.6689246,6.36977492 C10.4785809,6.50482315 10.2366186,6.49196141 10.0236918,6.59807074 C9.56880266,6.8392283 9.46879157,7.56270096 9.43330377,8.1511254 C9.38491131,8.95498392 9.38813747,9.90032154 9.91400222,10.4019293 C10.2979157,10.7588424 10.8302328,10.7234727 11.3141574,10.6977492 L11.8013082,10.659164 C11.9244292,10.7319855 12.0540242,10.7933384 12.1884479,10.8424437 L12.1884479,11.5273312 L12.0981153,11.5273312 C12.0981153,11.5273312 6.52652993,9.91961415 0.406496674,26.7170418 L0.300033259,26.7170418 C0.300033259,26.7170418 -0.603292683,29.7717042 0.842028825,29.2347267 C2.10023282,28.7652733 2.13249446,27.1993569 2.10991131,26.807074 L2.19379157,26.807074 C2.19379157,26.807074 4.71987805,19.437299 8.68805987,18.5369775 C8.68805987,18.5369775 11.5754767,22.1318328 6.88463415,29.3215434 L10.5560089,29.3215434 C10.5443969,30.1259292 10.7072689,30.9233224 11.0334812,31.659164 C12.1142461,33.8167203 8.86872506,54.3086817 8.86872506,54.3086817 L11.5754767,54.3086817 L12.936918,47.5176849 L13.1079047,54.3086817 L15.0919956,54.3086817 L17.0760865,41.2508039 L16.8050887,25.5209003 L16.8050887,21.4469453 L17.1664191,21.926045 L17.1664191,15.6334405 L22.396031,15.6334405 L23.299357,8.62379421 L23.2057982,8.62379421 C23.2279035,8.13420107 23.2073944,7.64361958 23.1445011,7.15755627 L29.887184,5.74598071 C30.948592,1.25401929 27.7224279,0 27.7224279,0 Z M21.8185477,8.73311897 L20.2377273,12.7620579 C20.2377273,12.7620579 15.9082151,10.7845659 14.2854545,11.5048232 L14.195122,11.5048232 L14.195122,10.6495177 C14.8690686,10.2613742 15.305518,9.56489584 15.3597672,8.79099678 L21.8604878,7.43086817 C21.7763267,7.85874341 21.7610803,8.29724812 21.8153215,8.72990354 L21.8185477,8.73311897 Z" id="Shape"></path>
            </g>
            <path d="M28.9322395,21.9839228 C28.9322395,21.9839228 29.138714,19.0128617 28.2095787,19.6655949 C27.2804435,20.318328 27.6804878,22.1672026 27.6804878,22.1672026 L28.9322395,21.9839228 Z" id="Shape" fill="#FDA57D"></path>
            <path d="M7.12982262,38.9292605 C7.12982262,38.9292605 6.27166297,41.8392283 7.64600887,41.3279743 C9.02035477,40.8167203 8.84936807,38.9292605 8.84936807,38.9292605 L7.12982262,38.9292605 Z" id="Shape" fill="#FDA57D"></path>
            <rect id="Rectangle-path" fill="#FDA57D" x="18.4730155" y="23.3440514" width="1.89053215" height="1.71382637"></rect>
            <rect id="Rectangle-path" fill="#4D8AF0" x="16.9244568" y="32.7652733" width="1.54533259" height="7.7073955"></rect>
            <rect id="Rectangle-path" fill="#000000" opacity="0.1" x="16.9244568" y="32.7652733" width="1.54533259" height="7.7073955"></rect>
            <path d="M19.2085809,24.4598071 L20.9958758,24.4598071 C22.0203885,24.4598071 22.8509202,25.2875764 22.8509202,26.3086817 L22.8509202,37.8167203 L17.3664412,37.8167203 L17.3664412,26.3086817 C17.3664166,25.2925782 18.1891114,24.4668756 19.2085809,24.4598071 Z" id="Shape" fill="#FFFFFF"></path>
            <ellipse id="Oval" fill="#FDA57D" cx="19.2440687" cy="21.7170418" rx="2.23250554" ry="2.22508039"></ellipse>
            <path d="M18.3859091,24.4598071 C18.3859091,24.4598071 13.0595122,22.9196141 7.21692905,39.0160772 L8.9364745,39.0160772 C8.9364745,39.0160772 11.3431929,31.9935691 15.121031,31.1382637 C15.121031,31.1382637 17.8697228,34.562701 13.4014856,41.4276527 L17.0115632,41.4276527 L17.0115632,39.1318328 C16.9905233,35.652202 17.4243278,32.1846614 18.3020288,28.8167203 C18.7159448,27.3973434 18.7448882,25.893965 18.3859091,24.4598071 Z" id="Shape" fill="#65C101"></path>
            <path d="M20.4474279,24.4598071 L20.4474279,24.9742765 C20.4474279,24.9742765 21.6507871,30.2829582 22.6799335,33.7073955 L23.2057982,34.4051447 L23.2057982,28.3987138 L28.1902217,28.3987138 L29.0483814,21.7202572 L27.6740355,21.7202572 L26.1093459,25.6559486 C26.1093459,25.6559486 21.9927605,23.7717042 20.4474279,24.4598071 Z" id="Shape" fill="#65C101"></path>
            <path d="M17.3535366,37.8167203 C17.3535366,37.8167203 16.3211641,41.585209 17.3535366,43.6398714 C18.3859091,45.6945338 15.2920177,65.2186495 15.2920177,65.2186495 L17.872949,65.2186495 L21.5669069,46.807074 L22.1669734,37.8038585 L17.3535366,37.8167203 Z" id="Shape" fill="#333333"></path>
            <polygon id="Shape" fill="#333333" points="22.8541463 37.8167203 23.1122395 52.8006431 21.2217073 65.2186495 19.3311752 65.2186495 18.6440022 37.8167203"></polygon>
            <path d="M18.8795122,20.8681672 C18.9253016,20.7938611 18.9818292,20.726687 19.0472727,20.6688103 C19.111852,20.6310615 19.1853333,20.6110878 19.2601996,20.6109325 C19.7279933,20.5723473 20.2667627,20.562701 20.5506652,20.1221865 C20.7592969,19.7267265 20.8100117,19.2672165 20.6926164,18.8360129 C20.6773166,18.7202847 20.6341482,18.6099647 20.566796,18.5144695 C20.4424957,18.3982192 20.2688779,18.3501524 20.1022284,18.3858521 L18.2213747,18.5080386 C18.0063118,18.4998696 17.7944618,18.5619711 17.618082,18.6848875 C17.3535366,18.9067524 17.2761086,19.3665595 16.9986585,19.5659164 C16.8147672,19.6945338 16.5857095,19.681672 16.3921397,19.7845659 C15.9598337,20.0128617 15.8662749,20.6945338 15.8307871,21.2636656 C15.7856208,22.0289389 15.7856208,22.9292605 16.2889024,23.3954984 C16.653459,23.7363344 17.1599667,23.7170418 17.6213082,23.6784566 L18.4794678,23.607717 C18.566059,23.6100477 18.6510368,23.5840745 18.7214302,23.5337621 C18.8312373,23.3875173 18.873465,23.2016318 18.8375721,23.022508 C18.8149889,22.5916399 18.7698226,22.1028939 18.4859202,21.8392283 C18.4181932,21.7885137 18.3564966,21.7302587 18.3020288,21.6655949 C17.9955432,21.1897106 18.718204,21.0803859 18.8795122,20.8681672 Z" id="Shape" fill="#333333"></path>
            <path d="M33.248847,13.5048232 C33.248847,13.5048232 36.3427384,14.7041801 35.3103659,18.9710611 L21.392694,21.8810289 L21.392694,21.1961415 L33.248847,13.5048232 Z" id="Shape" fill="#F79A00"></path>
            <rect id="Rectangle-path" fill="#000000" opacity="0.1" x="5.75547672" y="72.6688103" width="24.2284922" height="1"></rect>
            <rect id="Rectangle-path" fill="#EEEEEE" x="5.67159645" y="118.138264" width="24.2284922" height="2.90996785"></rect>
            <polygon id="Shape" fill="url(#linearGradient-2)" points="48.7634701 12.3311897 49.0054324 12.2090032 48.9473614 12.2025723 48.9667184 12.1897106 48.9312306 12.1993569 42.2724279 11.340836 42.4143792 13.5369775 42.6240798 15.4855305 43.0338027 15.2765273 43.41449 16.1382637"></polygon>
            <polygon id="Shape" fill="#F79A00" points="42.6369845 13.4951768 42.8305543 15.2797428 48.7828271 12.2733119 43.6145122 12.3858521"></polygon>
            <polygon id="Shape" fill="#000000" opacity="0.2" points="42.6369845 13.4951768 42.8305543 15.2797428 48.7828271 12.2733119 43.6145122 12.3858521"></polygon>
            <polygon id="Shape" fill="#F79A00" points="42.5047118 11.4855305 48.7828271 12.2733119 42.6369845 13.4951768"></polygon>
            <polygon id="Shape" fill="#F79A00" points="43.5661197 15.8713826 48.7473392 12.2540193 42.7402217 14.0353698"></polygon>
            <polygon id="Shape" fill="url(#linearGradient-3)" points="81.047694 3.13826367 81.2896563 3.01607717 81.2315854 3.00643087 81.2509424 2.99356913 81.2154545 3.00643087 74.5534257 2.14790997 74.6986031 4.34405145 74.9083038 6.2926045 75.3180266 6.08360129 75.698714 6.94533762"></polygon>
            <polygon id="Shape" fill="#F79A00" points="74.9212084 4.3022508 75.1147783 6.08681672 81.067051 3.08038585 75.8987361 3.19292605"></polygon>
            <polygon id="Shape" fill="#000000" opacity="0.2" points="74.9212084 4.3022508 75.1147783 6.08681672 81.067051 3.08038585 75.8987361 3.19292605"></polygon>
            <polygon id="Shape" fill="#F79A00" points="74.7889357 2.2926045 81.067051 3.08038585 74.9212084 4.3022508"></polygon>
            <polygon id="Shape" fill="#F79A00" points="75.8503437 6.67845659 81.0315632 3.06109325 75.0244457 4.8392283"></polygon>
            <polygon id="Shape" fill="url(#linearGradient-4)" points="137.612029 0.270096463 137.944324 0.0225080386 137.857217 0.0257234727 137.8798 0 137.831408 0.0257234727 127.575432 0.446945338 128.362616 3.72025723 129.182062 6.59807074 129.746641 6.17684887 130.540277 7.37620579"></polygon>
            <polygon id="Shape" fill="#C47B00" points="128.688459 3.59807074 129.440155 6.23472669 137.62816 0.173633441 129.872461 1.67524116"></polygon>
            <polygon id="Shape" fill="#F79A00" opacity="0.2" points="128.688459 3.59807074 129.440155 6.23472669 137.62816 0.173633441 129.872461 1.67524116"></polygon>
            <polygon id="Shape" fill="#F79A00" points="127.969024 0.604501608 137.62816 0.173633441 128.688459 3.59807074"></polygon>
            <polygon id="Shape" fill="#F79A00" points="130.701585 6.93890675 137.570089 0.154340836 128.98204 4.38263666"></polygon>
            <polygon id="Shape" fill="url(#linearGradient-5)" points="110.38643 18.7813505 110.650976 18.7202572 110.596131 18.7009646 110.618714 18.6913183 110.58 18.6913183 104.324468 16.2604502 103.934102 18.4276527 103.66633 20.3665595 104.114767 20.2636656 104.272849 21.1897106"></polygon>
            <polygon id="Shape" fill="#F79A00" points="104.159933 18.4405145 103.914745 20.2154341 110.418692 18.7299035 105.376197 17.5980707"></polygon>
            <polygon id="Shape" fill="#000000" opacity="0.2" points="104.159933 18.4405145 103.914745 20.2154341 110.418692 18.7299035 105.376197 17.5980707"></polygon>
            <polygon id="Shape" fill="#F79A00" points="104.518038 16.4565916 110.418692 18.7299035 104.159933 18.4405145"></polygon>
            <polygon id="Shape" fill="#F79A00" points="104.485776 20.9678457 110.389656 18.7009646 104.127672 18.9871383"></polygon>
            <g id="Group" opacity="0.5" transform="translate(67.104213, 40.514469)">
                <polygon id="Shape" fill="url(#linearGradient-6)" points="6.49426829 1.16720257 6.73300443 1.04180064 6.67815965 1.03536977 6.69429047 1.02250804 6.65880266 1.03215434 0 0.173633441 0.145177384 2.37299035 0.354878049 4.31832797 0.764600887 4.10932476 1.14206208 4.97106109"></polygon>
                <polygon id="Shape" fill="#F79A00" points="0.367782705 2.33118971 0.56135255 4.11254019 6.51362528 1.10610932 1.34531042 1.21864952"></polygon>
                <polygon id="Shape" fill="#000000" opacity="0.2" points="0.367782705 2.33118971 0.56135255 4.11254019 6.51362528 1.10610932 1.34531042 1.21864952"></polygon>
                <polygon id="Shape" fill="#F79A00" points="0.235509978 0.318327974 6.51362528 1.10610932 0.367782705 2.33118971"></polygon>
                <polygon id="Shape" fill="#F79A00" points="1.29691796 4.70418006 6.47813747 1.08681672 0.471019956 2.8681672"></polygon>
            </g>
            <g id="Group" opacity="0.2" transform="translate(135.498891, 11.897106)">
                <polygon id="Shape" fill="url(#linearGradient-7)" points="10.2721064 0.395498392 10.6044013 0.144694534 10.5172949 0.147909968 10.5431042 0.125401929 10.4914856 0.151125402 0.238736142 0.569131833 1.02592018 3.84244373 1.84213969 6.72347267 2.4067184 6.3022508 3.20358093 7.50160772"></polygon>
                <polygon id="Shape" fill="#F79A00" points="1.34853659 3.72347267 2.10023282 6.35691318 10.2882373 0.29903537 2.5325388 1.80064309"></polygon>
                <polygon id="Shape" fill="#000000" points="1.34853659 3.72347267 2.10023282 6.35691318 10.2882373 0.29903537 2.5325388 1.80064309"></polygon>
                <polygon id="Shape" fill="#F79A00" points="0.629101996 0.729903537 10.2882373 0.29903537 1.34853659 3.72347267"></polygon>
                <polygon id="Shape" fill="#F79A00" points="3.36166297 7.06430868 10.2301663 0.279742765 1.64211752 4.50803859"></polygon>
            </g>
            <g id="Group" opacity="0.3" transform="translate(162.921286, 47.588424)">
                <polygon id="Shape" fill="url(#linearGradient-8)" points="10.1688692 0.414790997 10.4979379 0.167202572 10.4108315 0.170418006 10.4366408 0.144694534 10.3850222 0.170418006 0.132272727 0.591639871 0.919456763 3.86495177 1.73890244 6.74598071 2.30025499 6.32154341 3.09711752 7.52411576"></polygon>
                <polygon id="Shape" fill="#F79A00" points="1.24207317 3.74276527 1.9937694 6.37942122 10.185 0.318327974 2.42607539 1.81993569"></polygon>
                <polygon id="Shape" fill="#000000" opacity="0.2" points="1.24207317 3.74276527 1.9937694 6.37942122 10.185 0.318327974 2.42607539 1.81993569"></polygon>
                <polygon id="Shape" fill="#F79A00" points="0.522638581 0.749196141 10.185 0.318327974 1.24207317 3.74276527"></polygon>
                <polygon id="Shape" fill="#F79A00" points="3.25519956 7.08360129 10.1237029 0.302250804 1.5356541 4.52733119"></polygon>
            </g>
            <g id="Group" opacity="0.3" transform="translate(247.446785, 65.273312)">
                <polygon id="Shape" fill="url(#linearGradient-9)" points="10.0753104 0.411575563 10.4076053 0.160771704 10.3204989 0.163987138 10.3463082 0.1414791 10.2946896 0.163987138 0.041940133 0.585209003 0.829124169 3.8585209 1.64534368 6.73954984 2.20992239 6.31832797 3.00355876 7.51768489"></polygon>
                <polygon id="Shape" fill="#F79A00" points="1.15174058 3.73954984 1.90343681 6.37299035 10.0914412 0.311897106 2.33574279 1.81350482"></polygon>
                <polygon id="Shape" fill="#000000" opacity="0.2" points="1.15174058 3.73954984 1.90343681 6.37299035 10.0914412 0.311897106 2.33574279 1.81350482"></polygon>
                <polygon id="Shape" fill="#F79A00" points="0.432305987 0.745980707 10.0914412 0.311897106 1.15174058 3.73954984"></polygon>
                <polygon id="Shape" fill="#F79A00" points="3.16486696 7.08038585 10.0333703 0.295819936 1.44532151 4.52090032"></polygon>
            </g>
            <g id="Group" opacity="0.5" transform="translate(104.527716, 44.694534)">
                <polygon id="Shape" fill="url(#linearGradient-10)" points="6.92334812 2.72990354 7.18789357 2.66559486 7.13304878 2.64630225 7.15563193 2.63665595 7.11691796 2.63987138 0.861385809 0.205787781 0.471019956 2.37299035 0.203248337 4.31511254 0.64845898 4.20900322 0.809767184 5.13504823"></polygon>
                <polygon id="Shape" fill="#F79A00" points="0.696851441 2.38585209 0.451662971 4.1607717 6.95560976 2.67524116 1.9131153 1.54340836"></polygon>
                <polygon id="Shape" fill="#000000" opacity="0.2" points="0.696851441 2.38585209 0.451662971 4.1607717 6.95560976 2.67524116 1.9131153 1.54340836"></polygon>
                <polygon id="Shape" fill="#F79A00" points="1.05495565 0.40192926 6.95560976 2.67524116 0.696851441 2.38585209"></polygon>
                <polygon id="Shape" fill="#F79A00" points="1.02269401 4.91639871 6.92657428 2.64951768 0.6645898 2.93247588"></polygon>
            </g>
            <g id="Group" opacity="0.5" transform="translate(220.669623, 86.816720)">
                <polygon id="Shape" fill="url(#linearGradient-11)" points="6.78784922 2.68167203 7.05239468 2.62057878 7.00077605 2.59807074 7.02013304 2.59163987 6.98141907 2.59163987 0.729113082 0.160771704 0.335521064 2.32797428 0.0677494457 4.26688103 0.516186253 4.1607717 0.677494457 5.09003215"></polygon>
                <polygon id="Shape" fill="#F79A00" points="0.56135255 2.34083601 0.319390244 4.11575563 6.82333703 2.63022508 1.77761641 1.49839228"></polygon>
                <polygon id="Shape" fill="#000000" opacity="0.2" points="0.56135255 2.34083601 0.319390244 4.11575563 6.82333703 2.63022508 1.77761641 1.49839228"></polygon>
                <polygon id="Shape" fill="#F79A00" points="0.919456763 0.356913183 6.82333703 2.63022508 0.56135255 2.34083601"></polygon>
                <polygon id="Shape" fill="#F79A00" points="0.887195122 4.8681672 6.79107539 2.60128617 0.532317073 2.88745981"></polygon>
            </g>
            <g id="Group" opacity="0.5" transform="translate(213.572062, 42.122186)">
                <polygon id="Shape" fill="url(#linearGradient-12)" points="6.79107539 2.82636656 7.05562084 2.76205788 7.00077605 2.74276527 7.0233592 2.73311897 6.98464523 2.73633441 0.729113082 0.302250804 0.338747228 2.46945338 0.0709756098 4.41157556 0.519412417 4.30546624 0.680720621 5.23151125"></polygon>
                <polygon id="Shape" fill="#F79A00" points="0.564578714 2.48231511 0.319390244 4.25723473 6.82656319 2.77170418 1.78084257 1.63987138"></polygon>
                <polygon id="Shape" fill="#000000" opacity="0.2" points="0.564578714 2.48231511 0.319390244 4.25723473 6.82656319 2.77170418 1.78084257 1.63987138"></polygon>
                <polygon id="Shape" fill="#F79A00" points="0.922682927 0.501607717 6.82656319 2.77170418 0.564578714 2.48231511"></polygon>
                <polygon id="Shape" fill="#F79A00" points="0.890421286 5.01286174 6.79430155 2.74598071 0.532317073 3.02893891"></polygon>
            </g>
            <g id="Group" opacity="0.2" transform="translate(272.288248, 5.144695)">
                <polygon id="Shape" fill="url(#linearGradient-13)" points="6.96528825 2.67524116 7.2298337 2.61414791 7.17821508 2.59485531 7.19757206 2.585209 7.15885809 2.58842444 0.903325942 0.154340836 0.512960089 2.32154341 0.24518847 4.26366559 0.693625277 4.15755627 0.854933481 5.08360129"></polygon>
                <polygon id="Shape" fill="#F79A00" points="0.738791574 2.33440514 0.493603104 4.10932476 7.00077605 2.62379421 1.95505543 1.49196141"></polygon>
                <polygon id="Shape" fill="#000000" points="0.738791574 2.33440514 0.493603104 4.10932476 7.00077605 2.62379421 1.95505543 1.49196141"></polygon>
                <polygon id="Shape" fill="#F79A00" points="1.09689579 0.350482315 7.00077605 2.62379421 0.738791574 2.33440514"></polygon>
                <polygon id="Shape" fill="#F79A00" points="1.06463415 4.86495177 6.96851441 2.59485531 0.709756098 2.88102894"></polygon>
            </g>
            <g id="Group" opacity="0.2" transform="translate(54.522173, 17.041801)">
                <polygon id="Shape" fill="url(#linearGradient-14)" points="6.90721729 2.80064309 7.17176275 2.73954984 7.11691796 2.7170418 7.13950111 2.71061093 7.10078714 2.71061093 0.845254989 0.279742765 0.454889135 2.44694534 0.183891353 4.38585209 0.635554324 4.27974277 0.793636364 5.20900322"></polygon>
                <polygon id="Shape" fill="#F79A00" points="0.680720621 2.45980707 0.435532151 4.23472669 6.93947894 2.74919614 1.89698448 1.61736334"></polygon>
                <polygon id="Shape" fill="#000000" points="0.680720621 2.45980707 0.435532151 4.23472669 6.93947894 2.74919614 1.89698448 1.61736334"></polygon>
                <polygon id="Shape" fill="#F79A00" points="1.03882483 0.475884244 6.93947894 2.74919614 0.680720621 2.45980707"></polygon>
                <polygon id="Shape" fill="#F79A00" points="1.00656319 4.98713826 6.91044346 2.72025723 0.64845898 3.00643087"></polygon>
            </g>
            <polygon id="Shape" fill="url(#linearGradient-15)" points="187.704678 11.9581994 188.072461 11.7684887 187.985355 11.755627 188.01439 11.7363344 187.959545 11.7524116 177.780998 10.4405145 178.003603 13.8006431 178.322993 16.778135 178.948869 16.4533762 179.529579 17.7717042"></polygon>
            <polygon id="Shape" fill="#F79A00" points="178.34235 13.7363344 178.635931 16.4598071 187.733714 11.8649518 179.836064 12.0385852"></polygon>
            <polygon id="Shape" fill="#000000" opacity="0.2" points="178.34235 13.7363344 178.635931 16.4598071 187.733714 11.8649518 179.836064 12.0385852"></polygon>
            <polygon id="Shape" fill="#F79A00" points="178.139102 10.6623794 187.733714 11.8649518 178.34235 13.7363344"></polygon>
            <polygon id="Shape" fill="#F79A00" points="179.761863 17.3665595 187.682095 11.8360129 178.500432 14.5562701"></polygon>
            <polygon id="Shape" fill="url(#linearGradient-16)" points="211.400854 63.9163987 212.349346 63.9742765 212.191264 63.85209 212.271918 63.8456592 212.142871 63.8135048 193.689213 49.3472669 190.172694 56.2025723 187.298182 62.4276527 188.908038 62.5241158 188.501541 65.7909968"></polygon>
            <polygon id="Shape" fill="#F79A00" points="190.914712 56.4726688 188.29184 62.1672026 211.57184 63.7717042 195.847517 54.8842444"></polygon>
            <polygon id="Shape" fill="#000000" opacity="0.2" points="190.914712 56.4726688 188.29184 62.1672026 211.57184 63.7717042 195.847517 54.8842444"></polygon>
            <polygon id="Shape" fill="#F79A00" points="194.131197 50.2025723 211.57184 63.7717042 190.914712 56.4726688"></polygon>
            <polygon id="Shape" fill="#F79A00" points="189.430676 65.266881 211.497639 63.6527331 190.256574 58.2700965"></polygon>
            <polygon id="Shape" fill="url(#linearGradient-17)" points="288.973969 118.675241 290.95806 118.73955 290.622539 118.491961 290.783847 118.472669 290.516075 118.414791 251.079446 89.3826367 244.175455 103.916399 238.571608 117.086817 241.933271 117.192926 241.29449 124.032154"></polygon>
            <polygon id="Shape" fill="#C47B00" points="245.74337 104.434084 240.626674 116.485531 289.322395 118.366559 255.934823 100.803859"></polygon>
            <polygon id="Shape" fill="#F79A00" opacity="0.2" points="245.74337 104.434084 240.626674 116.485531 289.322395 118.366559 255.934823 100.803859"></polygon>
            <polygon id="Shape" fill="#F79A00" points="252.056973 91.1414791 289.322395 118.366559 245.74337 104.434084"></polygon>
            <polygon id="Shape" fill="#F79A00" points="243.204379 122.881029 289.15786 118.118971 244.485166 108.228296"></polygon>
            <polygon id="Shape" fill="url(#linearGradient-18)" points="255.212162 8.10932476 256.076774 7.7170418 255.879978 7.68167203 255.947727 7.63987138 255.818681 7.67202572 232.719346 3.48553055 232.829035 11.1864952 233.206497 18.0257235 234.674401 17.3633441 235.848725 20.4405145"></polygon>
            <polygon id="Shape" fill="#F79A00" points="233.612993 11.0771704 233.964645 17.3344051 255.296042 7.90032154 237.226297 7.37299035"></polygon>
            <polygon id="Shape" fill="#000000" opacity="0.2" points="233.612993 11.0771704 233.964645 17.3344051 255.296042 7.90032154 237.226297 7.37299035"></polygon>
            <polygon id="Shape" fill="#F79A00" points="233.512982 4.03536977 255.296042 7.90032154 233.612993 11.0771704"></polygon>
            <polygon id="Shape" fill="#F79A00" points="236.426208 19.5434084 255.173448 7.82958199 233.874313 12.9742765"></polygon>
            <polygon id="Shape" fill="url(#linearGradient-19)" points="279.689069 33.9196141 280.556907 33.5305466 280.360111 33.4951768 280.424634 33.4501608 280.298814 33.4823151 257.199479 29.2958199 257.309169 36.9967846 257.68663 43.8360129 259.154534 43.1768489 260.328858 46.2508039"></polygon>
            <polygon id="Shape" fill="#F79A00" points="258.093126 36.8906752 258.441552 43.14791 279.772949 33.7138264 261.703204 33.1864952"></polygon>
            <polygon id="Shape" fill="#000000" opacity="0.2" points="258.093126 36.8906752 258.441552 43.14791 279.772949 33.7138264 261.703204 33.1864952"></polygon>
            <polygon id="Shape" fill="#F79A00" points="257.989889 29.8488746 279.772949 33.7138264 258.093126 36.8906752"></polygon>
            <polygon id="Shape" fill="#F79A00" points="260.906341 45.3536977 279.650355 33.6430868 258.354446 38.7845659"></polygon>
            <polygon id="Shape" fill="url(#linearGradient-20)" points="155.678548 32.3890675 156.049557 32.1993569 155.96245 32.1897106 155.988259 32.170418 155.933415 32.1864952 145.758093 30.8745981 145.980698 34.2315113 146.296863 37.2090032 146.922738 36.8874598 147.503448 38.2057878"></polygon>
            <polygon id="Shape" fill="#F79A00" points="146.319446 34.170418 146.613027 36.8906752 155.710809 32.2990354 147.81316 32.4726688"></polygon>
            <polygon id="Shape" fill="#000000" opacity="0.2" points="146.319446 34.170418 146.613027 36.8906752 155.710809 32.2990354 147.81316 32.4726688"></polygon>
            <polygon id="Shape" fill="#F79A00" points="146.116197 31.096463 155.710809 32.2990354 146.319446 34.170418"></polygon>
            <polygon id="Shape" fill="#F79A00" points="147.735732 37.8006431 155.655965 32.2700965 146.474302 34.9903537"></polygon>
            <polygon id="Shape" fill="url(#linearGradient-21)" points="217.053093 27.7942122 217.420876 27.6045016 217.336996 27.5916399 217.362805 27.5723473 217.30796 27.5884244 207.132639 26.2765273 207.352018 29.6366559 207.671408 32.6141479 208.297284 32.2926045 208.877993 33.607717"></polygon>
            <polygon id="Shape" fill="#F79A00" points="207.693991 29.5723473 207.987572 32.2958199 217.085355 27.7009646 209.187705 27.8745981"></polygon>
            <polygon id="Shape" fill="#000000" opacity="0.2" points="207.693991 29.5723473 207.987572 32.2958199 217.085355 27.7009646 209.187705 27.8745981"></polygon>
            <polygon id="Shape" fill="#F79A00" points="207.490743 26.5016077 217.085355 27.7009646 207.693991 29.5723473"></polygon>
            <polygon id="Shape" fill="#F79A00" points="209.110277 33.2025723 217.03051 27.6720257 207.848847 30.3954984"></polygon>
        </g>
    </g>
</svg>